<svg xmlns="http://www.w3.org/2000/svg" viewBox="0 0 512 512" style="height: 256px; width: 256px;"><defs><filter id="shadow-1" height="300%" width="300%" x="-100%" y="-100%"><feFlood flood-color="rgba(0, 0, 0, 1)" result="flood"></feFlood><feComposite in="flood" in2="SourceGraphic" operator="out" result="composite"></feComposite><feGaussianBlur in="composite" stdDeviation="2" result="blur"></feGaussianBlur><feOffset dx="0" dy="6" result="offset"></feOffset><feComposite in2="SourceGraphic" in="offset" operator="atop"></feComposite></filter><radialGradient id="lorc-back-forth-gradient-0"><stop offset="0%" stop-color="#646464" stop-opacity="1"></stop><stop offset="100%" stop-color="#323232" stop-opacity="1"></stop></radialGradient><linearGradient x1="0" x2="0" y1="0" y2="1" id="lorc-back-forth-gradient-1"><stop offset="0%" stop-color="#ffcc2c" stop-opacity="1"></stop><stop offset="100%" stop-color="#9b5500" stop-opacity="1"></stop></linearGradient></defs><g class="" transform="translate(0,0)" style=""><path d="m241.844 28.625-21.188 5.063L33.25 78.53l-9.594 2.282 2.813 9.47 54.718 184.03 6.156 20.782 10.875-18.75 36.624-63.125 39.344 22.655 9.375-16.188-47.47-27.312L128 187.72l-4.656 8.06-30.406 52.47-45.75-153.844 156.625-37.47-30.344 52.345-4.69 8.126 8.126 4.656L332.75 211.75l-17.594 30.344 16.22 9.312 22.25-38.375 4.687-8.124-8.125-4.656-155.844-89.688 36.594-63.093 10.906-18.845zm-28.25 176.47-57.438 99.31 155.22 89.5 8.093 4.658-4.69 8.093-44.06 76.25 218.81-52.5-63.874-215.47-44.094 76.25-4.656 8.064-8.094-4.656-155.218-89.5z" fill="url(#lorc-back-forth-gradient-1)" transform="translate(76.8, 76.8) scale(0.7, 0.7) rotate(0, 256, 256) skewX(0) skewY(0)" filter="url(#shadow-1)"></path></g></svg>