<svg xmlns="http://www.w3.org/2000/svg" viewBox="0 0 512 512" style="height: 256px; width: 256px;"><defs><filter id="shadow-1" height="300%" width="300%" x="-100%" y="-100%"><feFlood flood-color="rgba(0, 0, 0, 1)" result="flood"></feFlood><feComposite in="flood" in2="SourceGraphic" operator="out" result="composite"></feComposite><feGaussianBlur in="composite" stdDeviation="2" result="blur"></feGaussianBlur><feOffset dx="0" dy="6" result="offset"></feOffset><feComposite in2="SourceGraphic" in="offset" operator="atop"></feComposite></filter><radialGradient id="delapouite-next-button-gradient-0"><stop offset="0%" stop-color="#646464" stop-opacity="1"></stop><stop offset="100%" stop-color="#323232" stop-opacity="1"></stop></radialGradient><linearGradient x1="0" x2="0" y1="0" y2="1" id="delapouite-next-button-gradient-1"><stop offset="0%" stop-color="#ffcc2c" stop-opacity="1"></stop><stop offset="100%" stop-color="#9b5500" stop-opacity="1"></stop></linearGradient></defs><g class="" transform="translate(0,0)" style=""><path d="M84.41 106c-15.63.1-27.67 13.8-25.69 29.3 16 124 16 117.4 0 241.4-2.54 19.8 17.33 35 35.79 27.3L361.5 292.9v98.8c0 7.9 8.9 14.2 20 14.3h52c11.1-.1 20-6.4 20-14.3V120.2c-.1-7.8-9-14.1-20-14.2h-52c-11 .1-19.9 6.4-20 14.2v98.9L94.51 108c-3.2-1.3-6.63-2-10.1-2z" fill="url(#delapouite-next-button-gradient-1)" transform="translate(76.8, 76.8) scale(0.7, 0.7) rotate(0, 256, 256) skewX(0) skewY(0)" filter="url(#shadow-1)"></path></g></svg>