<svg xmlns="http://www.w3.org/2000/svg" viewBox="0 0 512 512" style="height: 256px; width: 256px;"><defs><filter id="shadow-1" height="300%" width="300%" x="-100%" y="-100%"><feFlood flood-color="rgba(0, 0, 0, 1)" result="flood"></feFlood><feComposite in="flood" in2="SourceGraphic" operator="out" result="composite"></feComposite><feGaussianBlur in="composite" stdDeviation="2" result="blur"></feGaussianBlur><feOffset dx="0" dy="6" result="offset"></feOffset><feComposite in2="SourceGraphic" in="offset" operator="atop"></feComposite></filter><radialGradient id="guard13007-pause-button-gradient-0"><stop offset="0%" stop-color="#646464" stop-opacity="1"></stop><stop offset="100%" stop-color="#323232" stop-opacity="1"></stop></radialGradient><linearGradient x1="0" x2="0" y1="0" y2="1" id="guard13007-pause-button-gradient-1"><stop offset="0%" stop-color="#ffcc2c" stop-opacity="1"></stop><stop offset="100%" stop-color="#9b5500" stop-opacity="1"></stop></linearGradient></defs><g class="" transform="translate(0,0)" style=""><path d="M120.16 45A20.162 20.162 0 0 0 100 65.16v381.68A20.162 20.162 0 0 0 120.16 467h65.68A20.162 20.162 0 0 0 206 446.84V65.16A20.162 20.162 0 0 0 185.84 45h-65.68zm206 0A20.162 20.162 0 0 0 306 65.16v381.68A20.162 20.162 0 0 0 326.16 467h65.68A20.162 20.162 0 0 0 412 446.84V65.16A20.162 20.162 0 0 0 391.84 45h-65.68z" fill="url(#guard13007-pause-button-gradient-1)" transform="translate(76.8, 76.8) scale(0.7, 0.7) rotate(0, 256, 256) skewX(0) skewY(0)" filter="url(#shadow-1)"></path></g></svg>