<svg xmlns="http://www.w3.org/2000/svg" viewBox="0 0 512 512" style="height: 256px; width: 256px;"><defs><filter id="shadow-1" height="300%" width="300%" x="-100%" y="-100%"><feFlood flood-color="rgba(0, 0, 0, 1)" result="flood"></feFlood><feComposite in="flood" in2="SourceGraphic" operator="out" result="composite"></feComposite><feGaussianBlur in="composite" stdDeviation="2" result="blur"></feGaussianBlur><feOffset dx="0" dy="6" result="offset"></feOffset><feComposite in2="SourceGraphic" in="offset" operator="atop"></feComposite></filter><radialGradient id="delapouite-speaker-gradient-0"><stop offset="0%" stop-color="#646464" stop-opacity="1"></stop><stop offset="100%" stop-color="#323232" stop-opacity="1"></stop></radialGradient><linearGradient x1="0" x2="0" y1="0" y2="1" id="delapouite-speaker-gradient-1"><stop offset="0%" stop-color="#ffcc2c" stop-opacity="1"></stop><stop offset="100%" stop-color="#9b5500" stop-opacity="1"></stop></linearGradient></defs><g class="" transform="translate(10,0)" style=""><path d="m275.5 96-96 96h-96v128h96l96 96V96zm51.46 27.668-4.66 17.387c52.066 13.95 88.2 61.04 88.2 114.945 0 53.904-36.134 100.994-88.2 114.945l4.66 17.387C386.81 372.295 428.5 317.962 428.5 256c0-61.963-41.69-116.295-101.54-132.332zm-12.425 46.365-4.658 17.387C340.96 195.748 362.5 223.822 362.5 256s-21.54 60.252-52.623 68.58l4.658 17.387C353.402 331.552 380.5 296.237 380.5 256c0-40.238-27.098-75.552-65.965-85.967zm-12.424 46.363-4.657 17.387C307.55 236.49 314.5 245.547 314.5 256s-6.95 19.51-17.047 22.217l4.658 17.387c17.884-4.792 30.39-21.09 30.39-39.604 0-18.513-12.506-34.812-30.39-39.604z" fill="url(#delapouite-speaker-gradient-1)" filter="url(#shadow-1)"></path></g></svg>